<?xml version="1.0" encoding="UTF-8"?> <svg xmlns="http://www.w3.org/2000/svg" xmlns:xlink="http://www.w3.org/1999/xlink" width="485px" height="440px" viewBox="0 0 485 440"><title>Group 69</title><defs><linearGradient x1="0%" y1="50%" x2="99.2634596%" y2="51.3600027%" id="linearGradient-1"><stop stop-color="#F82E94" offset="0%"></stop><stop stop-color="#FF9E33" offset="100%"></stop></linearGradient></defs><g id="Page-1" stroke="none" stroke-width="1" fill="none" fill-rule="evenodd"><g id="Group-69" transform="translate(0.000000, 1.000000)"><g id="Group-49"><circle id="Oval" stroke="#1C1F2C" fill="#FFFFFF" fill-rule="nonzero" cx="252" cy="198" r="189"></circle><path d="M198.184285,243.49899 C199.072505,243.516133 199.748182,244.379688 200.612212,244.715307 C201.546228,245.105434 202.410258,245.441053 203.281921,245.838835 C203.522412,246.251015 203.615297,246.492015 203.855788,246.904195 C203.424361,248.029888 203.070552,249.272253 202.639125,250.397946 C201.808092,252.393019 201.047046,254.442601 200.410708,256.476871 C200.175266,257.136791 199.854572,257.617876 199.353158,258.689061 L199.35487,258.649723 L199.35487,258.649723 L199.356464,258.613228 L199.35864,258.565615 L199.25206,259.102197 C198.679869,261.776691 197.650697,264.41217 197.212459,267.028858 C194.943529,267.622954 193.066571,267.285505 191.371626,265.852987 C190.225183,263.2173 191.354011,260.554649 191.594619,257.874856 C191.392292,257.773496 191.197598,257.734301 190.932917,257.640597 C190.759829,258.292862 190.641462,258.875306 190.383122,259.348734 C190.202402,259.938835 189.804088,260.303248 189.49866,260.90866 C188.746538,262.515438 187.92443,264.067707 187.22703,265.604665 C185.39446,269.237141 184.355933,273.150727 183.11508,276.962954 C183.01327,277.164758 183.043801,277.413414 183.0667,277.599907 C183.025952,278.299023 183.117546,279.044991 182.889737,279.767075 C182.338651,281.980181 182.551077,284.225741 182.451734,286.509582 C182.473341,287.201042 182.447859,288.024486 182.43001,288.910095 C182.561059,289.461915 182.707373,290.138063 182.978396,290.798898 C183.264683,291.584062 183.49625,292.439046 183.844892,293.216554 C184.07775,293.56657 184.435316,293.901273 184.78525,294.173813 C185.978898,293.585543 186.767892,292.794553 187.673961,291.926088 C189.055962,290.809881 190.197473,289.281495 191.284262,287.822929 C193.527828,284.960305 195.483814,281.817485 197.369813,278.620158 C197.933581,277.541316 198.380274,276.539951 198.609375,275.312899 C198.765906,275.041274 198.844817,274.652978 199.001347,274.381354 C199.103157,274.17955 199.16551,274.171894 199.392028,273.954777 C200.622548,274.182295 201.923055,274.464322 203.223563,274.746348 C203.550598,274.832395 203.775823,275.120247 204.125757,275.392787 C203.733784,276.324331 203.396533,277.186056 203.448671,278.126172 C203.502101,278.56132 203.298482,278.964929 203.040142,279.438357 C202.531095,280.447378 201.874441,281.28522 201.497735,282.341093 C201.183382,283.389309 200.799043,284.383018 200.27473,285.267711 C199.101397,287.052409 198.255098,288.923155 197.074132,290.645689 C196.08152,291.840287 195.361221,293.190753 194.228635,294.276335 C193.658525,294.788044 193.103681,295.424081 192.471218,295.943446 C191.48753,296.695239 190.371501,297.400181 189.124423,297.553303 C188.610326,297.490224 188.064407,297.683457 187.573209,297.80687 C184.353705,298.391479 181.480377,297.671559 178.717782,296.30703 C176.632156,295.301089 175.467864,293.55101 174.717151,291.560847 C174.205638,290.487831 173.873553,289.329684 173.736163,288.210731 C173.251423,285.809303 173.273147,283.408791 173.411946,280.930802 C173.582567,278.196501 174.09549,275.672575 174.850194,273.055861 C175.541254,270.951772 176.427008,268.886878 177.25804,266.891804 C177.947808,265.292683 178.769916,263.740413 179.584392,262.125979 C180.274159,260.526858 181.290962,259.013784 182.315398,257.562874 C182.798963,257.377297 183.220175,257.199376 183.696108,256.951636 C183.580324,256.524144 183.40982,256.166472 183.294036,255.73898 C185.763751,251.962996 188.277362,248.063973 192.416576,245.324397 L192.866355,245.035367 L194.238141,244.866933 C194.744605,244.867848 195.20398,245.000747 195.788064,245.118334 C196.511174,244.639805 196.840984,243.767422 197.775749,243.548998 L197.971063,243.514343 L198.184285,243.49899 Z M332.838312,240.027502 C334.075174,240.822152 335.264947,241.748787 336.384734,242.620913 C338.056781,243.866939 338.504649,245.452579 338.087195,247.207568 C338.102461,247.331896 338.055372,247.46388 337.94593,247.60352 C337.898842,247.735505 337.781767,247.812981 337.609971,247.960277 C335.879327,248.298976 334.268342,247.550262 332.845711,246.273612 C332.009629,247.196585 331.710541,248.36913 331.396189,249.417347 C330.500219,252.430013 330.071257,255.637742 329.759371,258.767996 C329.719915,258.962144 329.8128,259.203144 329.835698,259.389636 C330.060924,259.677488 330.31034,259.646863 330.614476,259.546419 C331.940465,259.005001 333.210441,259.038371 334.713276,259.421757 C335.428408,260.091164 336.330602,260.737603 337.240429,261.446205 C337.50511,261.539909 337.605627,261.843073 337.347287,262.316502 C336.474333,262.423687 335.484304,262.608348 334.618982,262.777698 C333.628953,262.962359 332.833618,263.186216 332.053548,263.534402 C331.086417,263.905555 330.266892,264.447889 329.37738,264.935714 C329.023572,266.178079 328.996799,267.506491 328.970026,268.834904 C328.64534,273.922866 328.522981,279.112187 328.650038,284.270885 C328.737756,286.531757 328.747855,288.675958 329.45148,290.798105 C328.811384,291.255307 327.977885,291.168344 327.299625,291.314725 C326.645555,291.14263 326.10856,290.893058 325.45449,290.720963 C324.987481,290.5259 324.442854,290.214165 324.045832,290.073609 C323.245448,289.225366 322.943894,288.315874 322.774681,287.453234 C322.180499,285.191447 321.843365,282.961198 321.763279,280.76249 C321.561069,277.569157 321.296505,274.383481 321.28899,271.229344 C321.291938,268.376438 321.290132,265.484808 321.399923,262.605981 C319.535375,265.083957 317.123138,267.751146 315.330968,268.386614 C313.366681,268.437189 312.561439,268.091304 310.122656,266.865872 C309.149471,264.634512 309.358387,262.194471 309.527739,259.949898 C308.847737,259.588636 308.67411,260.24532 308.252276,259.915896 C307.920393,261.35445 307.276545,262.323016 306.632697,263.291582 C304.661589,266.392749 302.768473,269.611412 301.352126,273.089218 C301.132386,273.370345 300.920332,273.714064 300.778584,274.112688 C300.480853,274.276318 300.112816,274.385044 299.627224,274.57174 C299.517355,274.712303 299.47779,274.907771 299.398662,275.298706 C299.570016,275.658886 299.811675,276.07397 299.998399,276.559335 C299.395252,276.824002 298.78442,277.026076 298.205466,276.970089 C296.476289,276.864723 294.991046,276.157576 294.063973,274.301773 C293.503801,272.845677 293.60171,271.054631 293.582064,269.341557 C293.658054,266.854301 293.81972,264.547135 294.036322,262.169688 C294.25406,259.283808 294.659659,256.374862 295.604648,253.71737 C295.872774,252.794937 296.273826,251.919718 296.98798,251.006056 C297.426322,250.952235 297.598812,250.803982 297.989905,250.883035 C299.647639,251.44193 301.384501,251.609889 302.932365,252.309347 C303.432191,252.756269 303.618915,253.241634 303.437602,253.835725 C303.270524,255.063435 303.111131,256.353736 302.420034,257.455177 C302.605621,258.448975 301.773912,259.440608 302.037491,260.551902 C302.663694,260.475014 302.735137,260.021486 302.947191,259.677766 C303.284486,259.318669 303.551475,258.904668 303.936019,258.412696 C304.093139,258.139258 304.422748,257.717567 304.767728,257.421063 C304.987468,257.139936 305.254457,256.725935 305.591752,256.366837 C305.929047,256.00774 306.070795,255.609116 306.525645,255.172048 C306.730014,254.765736 307.020059,254.539513 307.357354,254.180416 C307.694649,253.821318 307.977009,253.532503 308.259369,253.243687 C308.596663,252.88459 308.863652,252.470588 309.153698,252.244366 C309.545928,251.814986 310.008463,251.440512 310.228203,251.159385 C310.628118,250.792599 310.973098,250.496094 311.318078,250.19959 C312.920877,250.828766 314.798351,251.106533 316.268223,251.688494 C317.267875,252.582337 317.01512,253.629957 317.435818,254.467813 C316.992928,256.555363 316.479733,258.588008 316.052214,260.800743 C315.830201,262.098734 314.579796,264.857263 315.871767,264.508019 C316.46381,264.323613 320.373381,259.950858 321.683944,258.073419 C321.752241,257.318266 321.833163,256.565876 321.928379,255.817247 C322.396797,252.415369 323.137528,249.169359 324.399988,246.048592 C325.012136,244.332799 325.756625,242.663857 326.788693,241.275111 C327.281183,240.64673 327.788939,240.142677 328.499022,239.739984 C329.786847,238.887746 331.383858,239.007164 332.838312,240.027502 Z M235.408584,243.150066 C237.531212,243.44658 239.589614,243.750981 241.677968,244.299321 C242.009753,244.877628 242.326562,245.333964 242.73006,245.96537 C242.402296,248.605601 241.931104,251.139635 241.675053,253.832966 C241.468253,256.396441 240.81187,259.015117 240.60507,261.578592 C240.49476,262.273085 240.11257,262.877153 239.888783,263.709388 C239.953009,263.701502 239.975474,263.884457 240.062164,264.059526 C239.586649,267.089326 239.175361,270.11124 238.828299,273.125268 C238.48988,275.147764 238.2082,277.101388 237.92652,279.055012 C237.917072,279.402837 237.989833,279.740568 238.042319,280.049094 L238.07628,280.274713 L238.180832,280.255469 C238.610569,280.148154 238.746562,279.741395 238.957304,279.485588 C239.899387,278.131826 240.648793,276.801721 241.61334,275.630914 C242.426972,274.292923 243.448257,273.053245 244.548745,271.92765 C244.88847,271.390702 245.46668,271.117944 246.005244,270.708752 L246.027498,270.690613 C246.134653,270.013902 246.272564,269.338449 246.439971,268.661911 C247.187618,265.43852 248.358097,262.55466 249.54436,259.799346 C249.9971,258.830375 250.481407,258.118495 250.957822,257.342342 C251.38744,256.702418 251.895422,256.183356 252.701075,256.019192 C254.634281,256.760447 256.39553,257.653298 258.336628,258.458825 C258.66476,258.027087 258.938204,257.667304 259.328917,257.227882 C260.862966,257.822422 262.506392,258.27305 264.048333,258.931863 C265.793798,259.696169 267.499805,260.139113 269.159015,260.718285 C269.600337,260.871624 270.056652,260.974022 270.52365,261.065448 C270.89551,260.181238 271.244228,259.376165 272.16096,258.962161 C272.216973,258.387373 272.295884,257.999077 272.507135,257.657632 C272.710754,257.254024 273.069612,257.083759 273.405572,256.727003 C275.227808,257.134272 276.776439,257.890642 278.395057,258.70152 C278.589752,258.740716 278.682637,258.981716 278.767889,259.160551 C278.709293,260.745276 277.841388,261.924562 277.510478,263.353419 C277.234289,264.712455 276.903379,266.141312 276.697177,267.554857 C276.623315,269.015253 276.479467,270.421142 276.460327,271.811719 C277.004954,272.123454 277.099131,271.859486 277.325648,271.642369 C278.622398,270.347327 279.522125,268.911729 280.344234,267.359459 C282.003716,264.379248 283.530857,261.352185 285.11272,258.255302 C285.731209,257.106641 286.139739,255.794456 286.618255,254.536778 C286.900785,253.744874 287.253301,253.007477 287.979941,252.224144 C289.195196,252.327334 290.261553,252.764313 291.055597,253.045423 C291.506048,253.621127 291.302429,254.024735 291.153531,254.358524 C291.464009,254.825211 291.7045,255.237391 292.069699,255.634259 C292.045509,255.952735 292.006054,256.146883 291.981864,256.465359 C292.037759,258.982544 291.696633,261.359173 291.433127,263.852474 C291.083076,266.671907 290.787747,269.421521 290.437696,272.240954 C290.102912,275.184715 289.900467,278.175328 290.017425,281.189825 C289.97797,281.383973 290.008501,281.632629 289.976678,281.888941 C289.391303,282.276322 288.845384,282.469555 288.174756,282.6781 C286.967134,282.637074 285.923675,282.386587 284.842052,281.825281 C284.214756,280.324773 284.148644,278.755361 284.090165,277.248113 C283.914611,275.818341 283.918486,274.303436 283.782388,272.679516 C283.18938,273.004733 282.993394,273.470505 282.665067,273.889426 C282.344373,274.370511 282.023679,274.851595 281.695353,275.270516 C281.367026,275.689436 280.96108,275.991685 280.687474,276.340786 C280.242073,276.837182 279.983733,277.310611 279.640141,277.605203 C278.478315,277.937161 277.371211,278.199299 276.264106,278.461437 C275.835262,278.577193 275.445873,278.498802 274.931776,278.435723 C273.334765,278.316305 271.871386,277.738771 270.455096,277.029253 C269.577092,276.064338 269.135565,275.04583 268.935821,273.934534 C268.496878,271.90609 268.626752,269.870906 268.881334,267.820409 C269.038482,266.777531 269.250918,265.7663 269.49373,264.772456 C268.513439,264.685665 267.507855,264.510578 266.533956,264.172194 C266.072772,264.555028 266.190594,264.997251 266.237944,265.382887 C266.513599,267.110561 266.664094,268.853603 266.384418,270.714704 C266.025272,271.411217 265.674018,272.172002 265.346438,273.125605 C265.378005,273.382695 265.472152,273.632101 265.589974,274.074325 C265.309192,274.891698 265.161462,275.757977 264.872788,276.511078 C263.943633,278.256201 263.100733,280.186458 261.819218,281.648638 C259.115242,284.459822 256.033573,285.229652 252.488507,284.29486 C252.026769,284.15583 251.424087,283.903622 250.962349,283.764592 C248.402786,282.578313 247.823226,281.997059 246.333762,279.178833 C245.924043,277.368387 245.73763,275.625179 245.754948,273.912823 C243.447089,276.998777 241.224536,280.254589 239.209585,283.664115 C238.649692,284.413811 238.248203,285.391674 237.669012,286.515166 C237.370346,286.737551 236.996799,286.350085 236.418764,286.421059 C235.863193,286.674988 235.250884,286.997788 234.631087,287.259603 C234.230754,287.184949 233.709457,287.187051 233.309124,287.112397 C231.179008,286.754898 229.843225,285.433204 229.161514,283.59787 C228.502266,281.94549 228.285114,280.176924 228.211389,278.514555 C228.164451,276.539376 228.317679,274.601524 228.270741,272.626344 C228.267909,271.886181 228.279144,271.141986 228.3023,270.395356 C227.120453,270.335083 225.880892,270.16555 224.688805,269.751356 C224.22762,270.13419 224.345442,270.576414 224.392793,270.962049 C224.668448,272.689723 224.818943,274.432765 224.539267,276.293867 C224.180121,276.990379 223.828866,277.751164 223.501287,278.704767 C223.532854,278.961857 223.627001,279.211263 223.744823,279.653487 C223.464041,280.470861 223.316311,281.337139 223.027637,282.09024 C222.098482,283.835363 221.255582,285.76562 219.974066,287.227801 C217.270091,290.038984 214.188422,290.808814 210.643356,289.874022 C210.181618,289.734992 209.578936,289.482785 209.117198,289.343754 C206.557635,288.157475 205.978075,287.576221 204.488611,284.757995 C203.655412,281.076293 203.745688,277.67265 204.59482,274.241074 C205.342467,271.017682 206.512946,268.133823 207.699208,265.378508 C208.151949,264.409538 208.636255,263.697657 209.11267,262.921504 C209.542288,262.281581 210.05027,261.762518 210.855924,261.598354 C212.78913,262.339609 214.550379,263.23246 216.491477,264.037987 C216.819609,263.606249 217.093053,263.246467 217.483765,262.807044 C219.017814,263.401585 220.661241,263.852212 222.203182,264.511025 C223.948647,265.275331 225.654654,265.718275 227.313864,266.297448 C227.7024,266.432446 228.102557,266.52796 228.511395,266.611265 C228.653426,264.735647 228.848333,262.862061 229.061656,261.015002 C229.709697,255.673554 231.180867,250.664369 233.516929,245.796606 C233.827405,245.13944 234.209596,244.535373 234.591787,243.931305 C234.818739,243.655821 235.117406,243.433436 235.408584,243.150066 Z M217.02424,264.75547 C216.69666,265.709073 216.470567,266.45449 216.244473,267.199907 C215.955246,267.431144 215.720708,267.590425 215.603439,267.670065 C215.252738,268.952715 215.04298,270.348541 214.739076,271.494961 C214.209078,273.386799 213.67908,275.278636 213.493551,277.389144 C213.470429,277.718191 213.392618,278.119193 213.369496,278.44824 C212.831607,280.275805 212.638186,282.32204 212.71087,284.466085 C212.726653,284.59463 212.875489,284.77208 212.953853,284.892941 C213.086905,284.941846 213.282538,284.983067 213.493954,285.152833 C215.26033,283.500636 216.713803,281.886859 217.704986,279.612188 C218.750857,277.26556 219.014197,274.754049 218.956743,272.216685 C218.811928,268.450459 218.230709,266.303613 217.02424,264.75547 Z M258.869391,259.176308 C258.541811,260.129911 258.315718,260.875328 258.089624,261.620745 C257.800397,261.851982 257.565859,262.011263 257.44859,262.090903 C257.097889,263.373552 256.888132,264.769379 256.584227,265.915799 C256.054229,267.807636 255.524232,269.699474 255.338702,271.809982 C255.31558,272.139028 255.23777,272.540031 255.214648,272.869078 C254.676758,274.696643 254.483337,276.742878 254.556021,278.886923 C254.571805,279.015468 254.720641,279.192918 254.799004,279.313779 C254.932057,279.362684 255.12769,279.403904 255.339106,279.57367 C257.105481,277.921474 258.558954,276.307697 259.550137,274.033025 C260.596008,271.686398 260.859348,269.174887 260.801894,266.637523 C260.657079,262.871297 260.075861,260.724451 258.869391,259.176308 Z M359.006442,243.503186 C360.221697,243.606376 361.288054,244.043355 362.082098,244.324466 C362.532549,244.900169 362.32893,245.303778 362.180032,245.637566 C362.49051,246.104254 362.731001,246.516433 363.0962,246.913301 C363.07201,247.231777 363.032554,247.425925 363.008365,247.744401 C363.06426,250.261586 362.723134,252.638215 362.459628,255.131516 C362.109577,257.95095 361.814248,260.700563 361.464197,263.519996 C361.129412,266.463757 360.926968,269.454371 361.043926,272.468867 C361.004471,272.663015 361.035002,272.911671 361.003179,273.167984 C360.417804,273.555365 359.871884,273.748597 359.201257,273.957143 C357.993635,273.916116 356.950176,273.66563 355.868553,273.104323 C355.241257,271.603816 355.175145,270.034403 355.116666,268.527155 C354.941112,267.097383 354.944987,265.582478 354.808889,263.958558 C354.215881,264.283775 354.019895,264.749548 353.691568,265.168468 C353.370874,265.649553 353.05018,266.130637 352.721854,266.549558 C352.393527,266.968479 351.987581,267.270727 351.713975,267.619828 C351.268574,268.116225 351.010234,268.589653 350.666642,268.884246 C349.504816,269.216204 348.397712,269.478341 347.290607,269.740479 C346.861763,269.856236 346.472374,269.777844 345.958277,269.714765 C344.361266,269.595347 342.897887,269.017813 341.481597,268.308295 C340.603593,267.34338 340.162066,266.324873 339.962322,265.213577 C339.523379,263.185133 339.653253,261.149948 339.907835,259.099451 C340.256594,256.784986 340.877667,254.626388 341.498739,252.467791 C341.890711,251.536246 342.227962,250.674521 343.187461,250.241203 C343.243474,249.666415 343.322385,249.278119 343.533636,248.936675 C343.737255,248.533066 344.096113,248.362802 344.432072,248.006045 C346.254309,248.413314 347.80294,249.169684 349.421558,249.980562 C349.616252,250.019758 349.709137,250.260758 349.79439,250.439594 C349.735794,252.024318 348.867889,253.203604 348.536979,254.632461 C348.26079,255.991498 347.92988,257.420354 347.723678,258.833899 C347.649816,260.294296 347.505968,261.700184 347.486827,263.090761 C348.031455,263.402496 348.125632,263.138528 348.352149,262.921411 C349.648898,261.626369 350.548626,260.190771 351.370734,258.638502 C353.030217,255.65829 354.557358,252.631227 356.139221,249.534344 C356.75771,248.385683 357.16624,247.073498 357.644756,245.815821 C357.927286,245.023916 358.279802,244.286519 359.006442,243.503186 Z M372.784817,225.973015 C374.848836,226.287496 376.850502,226.609633 378.882699,227.180426 C379.208442,227.771442 379.51892,228.238129 379.91465,228.883653 C379.611688,231.571102 379.168752,234.149536 378.935777,236.891493 C378.74989,239.501466 378.127525,242.165031 377.941638,244.775004 C377.838537,245.481777 377.470755,246.094845 377.258212,246.941258 C377.320565,246.933602 377.343464,247.120094 377.428716,247.29893 C376.984489,250.382331 376.602616,253.458077 376.283096,256.526166 C375.96616,258.584319 375.703945,260.572652 375.441731,262.560985 C375.434591,262.915229 375.507264,263.259672 375.560067,263.574248 L375.594386,263.804265 L375.695853,263.785276 C376.112743,263.678484 376.242484,263.264952 376.445734,263.00562 C377.353094,261.632186 378.073393,260.281721 379.003652,259.094779 C379.786305,257.736657 380.771285,256.479896 381.833884,255.339806 C382.201666,254.726737 382.864661,254.456028 383.43477,253.944319 C383.98069,253.751086 384.564773,253.868673 384.999959,254.320049 C384.960503,254.514197 384.991034,254.762853 384.943946,254.894837 C384.412,255.717366 383.747714,256.493043 383.138149,257.1989 C380.870394,260.380001 378.687891,263.739937 376.715347,267.263397 C376.175769,268.023762 375.79143,269.017471 375.235294,270.158476 C374.946423,270.383248 374.581224,269.986381 374.020039,270.055285 C373.481753,270.310682 372.888745,270.635899 372.288104,270.898952 C371.898715,270.820561 371.392251,270.819646 371.002863,270.741254 C368.93121,270.364609 367.625654,269.010483 366.95256,267.136991 C366.302365,265.449992 366.081015,263.647235 365.999637,261.953495 C365.94245,259.941279 366.079957,257.968258 366.02277,255.956041 C365.986015,252.04828 366.31575,248.032419 366.723105,244.133229 C367.321396,238.696166 368.721364,233.602379 370.962463,228.657718 C371.260259,227.990141 371.628041,227.377073 371.995823,226.764004 C372.214707,226.484724 372.503579,226.259951 372.784817,225.973015 Z M148.763798,201.288826 C148.960659,201.325096 149.274074,201.281048 149.551242,201.433905 C150.964515,201.938584 152.323917,202.514771 153.808685,203.073339 C154.004545,203.557305 154.254276,203.969763 154.629373,204.364603 C154.312953,205.75174 154.068027,207.192766 153.81429,208.571094 C152.962959,212.974489 152.487726,217.325026 151.958623,221.747072 C151.484392,225.649913 151.19821,229.526326 150.795474,233.483056 C150.821909,233.67115 150.660295,233.885673 150.68673,234.073767 C150.86877,236.733518 150.209494,239.319698 150.069307,241.960799 C149.969374,242.614209 150.05749,243.24119 149.957558,243.8946 C149.737064,246.419114 149.453887,248.952437 149.367571,251.522029 C149.32932,252.614326 149.040336,253.741861 148.957025,254.968364 C146.071599,256.268996 146.071599,256.268996 142.529103,255.168448 C142.037451,254.853926 141.770097,254.316071 141.68198,253.68909 C141.558617,252.811316 141.381383,252.005049 141.320703,251.118466 C141.382587,247.465386 141.122243,243.793655 141.29187,239.99756 C141.322471,239.123722 141.364351,238.330138 141.394952,237.4563 L141.415436,236.783367 L141.283261,235.842895 C137.369472,236.648688 134.699531,237.663289 133.005084,238.79654 C131.340875,242.419066 129.425935,246.07683 127.904716,249.807133 C127.720115,250.515066 127.253066,251.010107 126.905273,251.595036 L126.781225,251.819189 L126.878153,252.508868 C126.098519,252.874185 125.327697,253.3022 124.521628,253.479422 C123.473639,253.75458 122.327719,253.787755 121.272921,253.104823 C120.871389,252.521889 120.926262,252.002685 121.177996,251.51975 C121.880328,249.694757 122.690403,247.726749 123.46423,245.955644 C123.958887,244.927077 124.444731,243.835811 124.948199,242.869942 C125.101002,242.592721 125.056944,242.27923 125.200935,241.939311 C124.323371,242.062644 123.705352,242.213438 122.961966,242.38185 C121.745554,241.91344 120.492893,241.641935 119.294104,241.298921 C118.83089,240.2771 118.894575,239.820594 119.63015,239.141787 C120.823133,238.079013 122.051362,237.267031 123.645876,236.78719 C125.28545,236.173144 126.987707,235.550288 128.752648,234.918623 C128.923074,234.766798 129.129748,234.418069 129.345234,234.132038 C131.952694,229.03428 134.774638,224.098187 137.721948,219.144475 C139.986553,215.245759 142.305029,211.275536 144.569634,207.37682 C145.504073,205.838889 146.537444,204.095245 147.516944,202.423108 C147.77749,202.002872 148.083095,201.44843 148.763798,201.288826 Z M177.498443,201.214501 C179.322962,201.461582 181.09949,201.715407 182.89363,202.138088 L183.663817,202.330047 L184.734236,204.033769 C184.477494,206.755186 184.077762,209.368827 183.892515,212.144133 C183.752328,214.785233 183.173359,217.488 183.033172,220.1291 C182.94205,220.845208 182.582573,221.471158 182.383709,222.330282 C182.446392,222.321472 182.472827,222.509567 182.561945,222.688852 C182.248408,225.18808 181.974989,227.681669 181.741686,230.169621 L181.574231,232.034528 L180.835448,238.148392 C180.834447,238.596088 180.958811,239.026166 181.011681,239.402355 C181.513146,239.331878 181.639514,238.866563 181.855,238.580532 C182.74438,237.176807 183.44571,235.799511 184.361525,234.58388 C185.125539,233.197774 186.095225,231.910636 187.145218,230.740084 C187.504695,230.114134 188.167774,229.829135 188.732924,229.302152 C189.279448,229.09747 189.870031,229.206279 190.316623,229.655007 C190.280375,229.851911 190.315622,230.102703 190.270562,230.236909 C189.749471,231.077382 189.094201,231.872776 188.492804,232.596663 C186.265449,235.850778 183.627548,242.551228 181.703795,246.146294 C181.173892,246.924069 180.804602,247.935018 180.264886,249.097791 C179.977905,249.329933 179.602808,248.935094 179.03866,249.01438 C178.554718,249.255022 178.304042,248.944995 177.821057,249.081925 L177.65082,249.145491 L176.353099,249.008191 C174.259123,248.663115 172.919348,247.316931 172.207405,245.434955 C171.521897,243.741074 171.424169,239.407124 171.311621,237.696655 C171.217698,235.663886 171.320635,233.667386 171.226712,231.634617 C171.140598,230.112242 171.179851,228.572249 171.219104,227.032255 C168.909237,235.157144 166.420133,243.371159 165.467068,245.23139 C164.937165,246.009165 164.567875,247.020114 164.028159,248.182887 C163.767267,248.393925 163.433552,248.086797 162.95118,248.08878 L162.801933,248.099476 L161.072239,248.981934 L159.774519,248.844634 C157.680543,248.499557 156.340767,247.153374 155.628824,245.271398 C154.943316,243.577517 154.687778,241.75927 154.57523,240.048802 C154.481306,238.016032 154.584244,236.019533 154.490321,233.986763 C154.38278,230.037812 154.642527,225.973305 154.98258,222.025384 C155.487252,216.519851 156.805803,211.347491 158.974481,206.311399 C159.262463,205.63156 159.62194,205.00561 159.981417,204.37966 C160.196903,204.09363 160.483883,203.861488 160.762052,203.566647 C162.586571,203.813728 164.363098,204.067554 166.157239,204.490234 L166.927426,204.682193 L167.997844,206.385915 C167.741102,209.107333 167.341371,211.720973 167.156124,214.496279 C167.015937,217.137379 166.436968,219.840146 166.29678,222.481246 C166.205659,223.197355 165.846182,223.823305 165.647318,224.682428 C165.710001,224.673619 165.736436,224.861713 165.825554,225.040998 C165.512017,227.540226 165.238597,230.033816 165.005295,232.521767 L164.83784,234.386674 L164.099057,240.500538 C164.098055,240.948235 164.22242,241.378312 164.27529,241.754501 C164.776755,241.684025 164.903123,241.218709 165.118608,240.932678 C166.007988,239.528953 172.142335,214.498815 172.646805,213.085249 C172.800609,212.360331 173.017096,211.626604 173.296267,210.884067 C173.928106,208.557489 174.694123,206.27599 175.710872,203.959253 C175.998854,203.279414 176.358331,202.653464 176.717808,202.027514 C176.933294,201.741483 177.220274,201.509341 177.498443,201.214501 Z M223.460429,194.371346 C223.80028,194.515392 224.310557,194.507614 224.66803,194.777057 C225.991184,195.550148 227.538636,196.099907 228.556184,197.42744 C228.546371,197.812438 228.527746,198.134739 228.446438,198.465848 C228.059903,199.687717 227.791909,200.892925 227.516967,202.099111 C227.642071,202.304712 227.75547,202.527073 227.856105,202.768626 C227.657916,202.975035 227.457519,203.136423 227.255476,203.264219 C226.555937,206.681158 226.107219,210.184708 225.529963,213.645073 C225.130232,216.258713 224.739312,218.935052 224.321957,221.423296 C224.058407,223.186622 223.848728,224.87844 223.639049,226.570259 C223.620424,226.892559 223.727166,227.19724 223.788847,227.636127 C224.605731,226.62621 225.11801,225.723039 225.549984,224.703281 C227.751905,220.813375 230.096816,217.031246 232.69246,213.213879 C233.15968,212.444913 233.600465,211.487854 234.622019,211.024601 C236.160659,211.511661 237.680674,212.321021 239.139007,212.691495 C239.92545,213.28427 240.093872,214.027838 240.244672,214.64601 C240.464963,216.213463 240.300344,217.771076 240.118102,219.203292 C239.844738,221.351617 239.508692,223.508751 239.163833,225.603187 C239.15402,225.988185 239.135395,226.310486 239.447809,226.714135 C239.627047,226.625008 239.931651,226.518262 240.093265,226.303739 C241.215754,224.739379 242.454798,223.094703 243.702653,221.512724 C244.133625,220.940663 244.599843,220.619394 245.05725,220.235427 L245.096686,220.244354 L245.16454,219.772792 C245.440274,217.565526 246.02463,215.261162 246.83462,212.969856 L247.061059,212.345362 C247.232486,211.74584 247.475409,211.200207 247.727143,210.717273 C248.444093,210.360766 249.04449,210.084576 249.644886,209.808386 C250.038608,209.880925 250.486201,209.881956 250.826052,210.026003 C251.756485,210.278859 252.570364,210.612031 253.509609,210.927585 C253.732905,211.151949 253.965013,211.439011 254.116814,211.609486 C254.345917,213.239638 253.430102,214.455268 253.382037,215.932564 C253.325161,217.347161 252.999929,218.6716 252.755004,220.112626 C252.501267,221.490954 252.301401,222.797774 252.110347,224.167292 C251.838987,225.420224 251.263022,226.779901 251.572431,228.52664 C253.449121,225.961173 256.076207,220.093417 257.97052,217.653347 C258.166715,217.706665 258.350194,217.750398 258.516256,217.785209 L258.573036,217.164078 L258.68021,216.019129 C258.891892,213.431918 259.640285,211.025022 260.44255,208.546619 C260.613978,207.947098 260.8569,207.401465 261.216377,206.775515 C261.41424,206.364088 261.737469,205.935042 261.952955,205.649011 C262.598411,205.238616 263.17137,205.222028 263.636587,205.348456 C265.014614,205.602342 266.321146,205.80234 267.967529,206.146385 C268.262319,206.424638 268.771594,206.864556 269.13788,207.196697 C269.199561,207.635584 269.315114,208.002964 269.305301,208.387962 C269.119053,211.610965 268.923992,214.771269 268.209844,217.876654 C268.109911,218.530064 268.117721,219.040458 268.268521,219.65863 C267.927669,219.96228 267.945292,220.087676 268.196024,220.052438 C268.258707,220.043629 268.294956,219.846725 268.402699,219.703709 C268.78861,219.265854 269.183334,218.890696 269.569246,218.452841 C271.967027,215.046901 274.57048,211.739928 277.379607,208.531923 C278.537342,207.218357 279.820444,205.887171 281.040863,204.564794 C281.228912,204.538366 281.533516,204.43162 281.79306,204.45908 C283.609869,204.6513 285.506984,204.960106 287.126932,205.116057 C288.699817,206.301606 288.40102,207.81414 288.460698,209.14842 C288.15309,210.598255 287.970847,212.030472 287.591744,213.426419 C287.329195,214.742048 287.200824,216.102757 286.875592,217.427196 C286.69335,218.859413 286.567781,222.968999 286.39435,224.463913 C287.290539,224.018279 290.723694,217.973302 291.244785,217.132829 C291.613074,216.569577 291.981362,216.006325 292.286968,215.451883 C292.526133,215.134421 292.790511,214.813416 293.034378,214.511604 C293.30189,212.675204 293.786632,210.921711 294.394513,209.209588 C295.565067,206.167933 297.191024,203.637704 299.800285,201.73652 C301.172505,200.584619 302.615218,199.934303 304.73663,200.019777 C306.265457,200.891836 307.991144,201.800164 309.653147,203.164998 C310.056682,202.852539 310.334851,202.557698 310.738387,202.245239 C311.32897,202.354048 311.901929,202.33746 312.501324,202.508967 C312.904859,202.196507 313.326018,202.009444 313.783424,201.625477 C314.740293,202.066427 315.822527,202.489758 316.760771,203.253008 C316.788968,203.453642 316.805887,203.574022 316.797478,203.747065 L316.78153,203.95872 C316.753683,204.086955 316.63764,204.271985 316.614777,204.48832 C317.111234,206.656327 317.419641,208.850762 317.343139,211.035356 C317.314701,211.742655 317.420441,212.495032 317.454686,213.193521 C317.453684,213.641218 317.578049,214.071295 317.505552,214.465103 C317.224379,216.103033 317.265432,217.759614 317.18112,219.433813 C317.178115,220.776903 316.978249,222.083723 316.661829,223.47086 C316.39928,224.78649 316.217038,226.218706 316.017172,227.525526 C315.685132,227.891874 315.478457,228.240603 315.200288,228.535443 C314.938741,229.403376 314.560639,230.351627 314.701626,231.354797 C313.819054,233.716613 312.811117,236.096049 311.811991,238.538182 C311.649375,239.200402 311.146908,239.718574 310.715937,240.290636 C310.35646,240.916586 310.202655,241.641504 309.834367,242.204756 C308.720689,243.831813 307.544329,245.46768 305.617774,246.313869 C305.187804,246.438234 304.846952,246.741883 304.434605,246.991645 C303.110449,246.66625 301.695173,247.056964 300.228028,246.623792 C300.103663,246.193715 299.98811,245.826336 299.89018,245.584353 C300.042983,245.307131 300.124291,244.976022 300.223222,244.770308 C301.3369,243.14325 302.298776,241.345718 303.001108,239.520725 C305.026797,234.376856 306.130863,229.042829 306.912703,223.690153 C307.102755,222.768331 307.230125,221.855319 307.420177,220.933497 C307.493675,220.091993 307.522113,219.384694 307.712166,218.462872 C307.344879,218.578428 307.156829,218.604856 306.986403,218.756681 C306.106836,219.775408 305.155775,220.740246 304.276208,221.758972 C303.440087,222.658764 302.446083,223.240929 301.152944,223.258799 L300.90694,223.255477 L300.468159,223.317143 C298.560229,223.841032 296.986342,223.103179 295.403644,222.302628 C294.609984,221.906665 294.035625,221.413296 293.62684,220.782025 C292.368535,223.018517 289.654629,227.711236 289.106143,228.750163 C288.350941,230.198967 287.045411,229.551272 286.567376,231.152933 C286.522316,231.287139 286.35189,231.438963 286.252959,231.644677 C285.303901,231.714122 284.426337,231.837455 283.522339,231.772694 C282.170747,231.706902 280.774095,231.775316 279.532249,230.671115 C279.159155,229.380883 278.63426,227.920175 278.243542,226.504546 C278.021248,225.832486 277.941943,225.268202 277.898887,224.507015 C277.84021,222.725038 277.755098,220.754967 277.661174,218.722198 C277.662176,218.274502 277.699426,217.629901 277.324329,217.235062 C277.198962,217.252681 277.136279,217.26149 277.145091,217.324188 C275.96873,218.960056 274.855053,220.587113 273.81287,222.268059 C273.489641,222.697105 273.184036,223.251548 272.860807,223.680594 C271.728505,225.629952 270.542331,227.650817 269.347346,229.608985 C269.220978,230.0743 268.75476,230.395569 268.476591,230.690409 C267.822323,231.038107 267.221927,231.314297 266.746897,231.572867 C266.674401,231.966675 266.601904,232.360483 266.520596,232.691593 C266.224804,232.861037 265.803645,233.0481 265.44517,233.226354 C265.095506,233.467305 264.754654,233.770955 264.351119,234.083414 C262.615618,233.560085 260.582322,234.101592 259.090745,232.584933 C258.288683,230.971369 258.113451,229.269709 257.974468,227.371146 C257.968673,226.185328 258.000966,225.000484 258.059092,223.814356 C257.048401,225.580523 255.956308,227.543231 255.323605,228.383066 C255.215862,228.526081 255.036624,228.615208 254.991565,228.749414 C254.522342,230.413772 253.301923,231.736149 252.555532,233.247651 C252.079501,233.953918 251.540786,234.668995 250.9482,235.45558 C248.852221,236.005896 246.918858,235.893994 245.274478,234.654556 C244.605592,233.533767 244.446982,232.405201 244.333432,231.142428 C244.306252,229.882084 244.32835,228.614814 244.390621,227.344304 C244.000882,227.849935 243.604588,228.360451 243.202787,228.871742 C241.991179,230.256816 240.779572,231.641891 239.782449,233.188631 C239.144803,234.109421 238.542404,235.281004 237.940005,236.452587 C237.572718,236.568142 237.080065,236.701317 236.641283,236.762984 C236.202501,236.82465 235.754907,236.823619 235.441492,236.867667 C234.197643,236.658859 233.402389,236.003386 232.525827,235.679023 C232.000932,234.218315 232.138114,232.920305 232.024564,231.657532 C232.054004,230.502537 232.06582,229.222146 232.086448,228.004452 C232.035582,226.732871 232.369625,225.471129 232.247264,224.145659 C232.005343,224.243595 231.808482,224.207326 231.75461,224.278833 C231.565559,224.752959 231.501875,225.209465 231.223706,225.504305 C230.191336,226.800253 229.65943,228.473421 228.91304,229.984923 C228.166649,231.496425 227.482942,232.999118 226.799235,234.501811 C226.080281,235.753711 225.432822,237.059499 224.767739,238.239892 C224.283898,238.435764 223.791244,238.568939 223.432769,238.747192 C223.046857,239.185048 223.296588,239.597506 223.179032,240.12552 C222.515953,240.410519 221.852873,240.695519 221.010556,241.069645 C219.937133,240.709012 218.872522,240.411078 217.799099,240.050445 C217.530743,239.960287 217.316259,239.798621 217.110586,239.699654 C216.253651,238.605294 215.94324,237.306252 215.775819,236.114987 C215.370483,233.230873 215.36768,230.481995 215.427561,227.724308 C215.366082,223.193454 215.761008,218.72633 216.2813,214.241586 C216.690259,211.363466 217.253597,208.601708 217.993448,205.836074 C216.766256,206.257892 215.668826,206.732425 214.391851,207.026556 C214.024564,207.142111 213.702337,207.12346 213.254744,207.122429 C213.065693,207.596554 212.751276,208.088298 212.687591,208.544805 C212.578846,209.135516 212.541597,209.780117 212.441664,210.433527 C212.121237,213.61145 211.926177,216.771755 211.525444,219.833092 C211.260892,222.044114 211.238261,224.157201 211.036392,226.359414 C210.942266,228.418612 210.99113,230.585587 210.68252,232.483119 C210.509089,233.978033 210.649074,235.4289 210.538326,236.915005 C210.463827,238.204206 210.523505,239.538486 210.555747,241.132369 C209.901479,241.480066 209.292271,241.693558 208.566509,241.987367 C207.313848,241.715861 206.017129,241.130864 204.631292,240.366583 C204.072152,238.207386 203.5042,235.985491 203.428902,233.630421 C203.293925,229.941072 203.150136,226.189024 203.382446,222.384119 C203.425705,219.053339 203.719697,215.687322 203.959817,212.392811 C203.96963,212.007813 203.979443,211.622814 203.989257,211.237816 C203.774772,211.07615 203.61416,210.842977 203.47117,210.7352 C203.229249,210.833136 203.095071,210.788057 203.0412,210.859564 C202.062702,212.084005 200.835475,212.44829 199.786483,213.171145 C198.96179,213.670667 198.094039,213.409002 197.190041,213.344241 C196.152866,212.786705 195.151939,212.032264 194.402747,210.794889 C194.26176,209.791719 194.773038,209.336244 195.239257,209.014975 C196.49392,208.391088 197.757396,207.829899 199.020871,207.26871 C200.911178,206.619425 202.792673,205.907442 204.745663,205.249348 C204.96215,204.515621 205.124766,203.853402 205.287382,203.191182 C205.810477,201.455316 206.217016,199.799767 206.740111,198.063901 C207.029095,196.936365 207.145649,196.856048 208.150582,195.819703 C209.491359,196.71819 210.931068,197.410963 212.334528,198.300641 C212.754685,198.561275 213.093534,199.153018 213.593997,199.530238 C213.708549,200.345314 213.894595,201.214279 214.080641,202.083243 C214.930768,202.219512 215.540978,201.558323 216.230492,201.461419 C217.045372,201.346895 217.851441,201.169672 218.523332,200.947371 C218.86384,200.872507 219.170791,200.802359 219.46781,200.733607 C219.854413,199.555236 220.291973,198.386287 220.795294,197.239431 C221.397694,196.067848 222.071588,194.950154 223.460429,194.371346 Z M142.371111,221.751841 C140.827663,224.414332 139.248956,227.081777 137.691596,229.773196 L136.143448,232.47331 L136.213941,232.974895 C137.896572,233.122036 139.536146,232.507989 141.51457,232.485686 C141.596879,231.70688 141.696812,231.05347 141.805556,230.462758 C141.907492,228.913955 142.080923,227.41904 142.254354,225.924126 C142.417971,224.81421 142.644272,223.695484 142.745206,222.594377 C142.835326,222.325966 142.961694,221.86065 142.371111,221.751841 Z M333.466673,194 C335.389222,194.944598 337.588938,196.042052 339.734782,197.211013 C339.904207,197.506885 340.082443,197.865455 340.340985,198.340611 C337.796411,199.337593 333.856986,203.599563 332.348585,205.601778 C332.133099,205.887809 331.85493,206.182649 331.630632,206.405981 C331.253532,206.906535 331.001798,207.38947 331.098726,208.079149 C332.745109,208.423194 334.355243,208.964143 335.822388,209.397315 C336.063308,209.747075 336.232732,210.042947 336.518711,210.258501 C337.599944,211.129528 338.000475,212.160159 337.917164,213.386662 C337.817231,214.040072 337.887724,214.541657 337.913157,215.177448 C337.760355,215.454669 337.536057,215.678002 337.499809,215.874905 C337.595735,217.012282 337.003149,217.798866 336.607424,218.62172 C336.095145,219.524891 335.690608,220.285047 335.151893,221.000124 C334.263515,221.956153 333.43782,222.903371 332.469135,223.742813 C331.912797,224.332494 331.338836,224.796778 330.470084,224.98281 C329.556272,225.303047 328.686518,225.936775 327.844201,226.310901 C326.401488,226.961217 325.049896,226.895425 323.546503,226.659157 C323.215464,226.577809 322.804119,226.379873 322.13323,226.154478 C322.188103,225.635274 322.189104,225.187577 322.252789,224.731071 C323.651444,223.767265 324.996227,222.874966 326.100091,221.632906 C327.643739,219.881484 329.044397,218.022284 330.355937,215.9838 C330.661543,215.429357 330.913277,214.946423 331.084704,214.346901 C331.273755,213.872776 331.373688,213.219366 331.598987,212.548337 C331.348255,212.583575 331.151394,212.547305 331.097522,212.618813 C329.697866,214.030316 327.950549,214.787378 325.99856,214.997775 C324.208187,214.99365 322.669547,214.50659 321.131909,213.571833 C320.425773,213.095645 319.961558,212.521521 319.838194,211.643747 C319.669772,210.900179 319.617903,210.076293 319.700213,209.297487 C319.90889,208.053365 320.403546,207.024797 320.943263,205.862024 C322.309676,203.304335 324.113869,201.132676 326.132547,199.122683 C327.020925,198.166654 330.447069,195.255553 331.487249,194.47 C331.720358,194.309365 331.962279,194.211429 332.275694,194.167381 C332.580298,194.060635 332.965208,194.070476 333.466673,194 Z M307.635471,204.727295 C306.936144,205.209198 306.11145,205.70872 305.196637,206.476654 C305.115329,206.807764 304.952713,207.469984 304.441435,207.925458 C304.262197,208.014585 304.154454,208.157601 304.118206,208.354505 C303.722481,209.177359 303.380627,209.928705 302.967279,210.626163 C302.13177,211.95838 301.850597,213.59631 301.292256,215.081384 C300.932779,215.707334 300.921964,216.540029 300.776971,217.327644 C300.965021,217.301216 301.170693,217.400183 301.287248,217.319866 C302.067883,216.506853 302.991508,215.801617 303.700649,214.934716 C305.49603,212.700358 307.497085,210.564969 308.881121,208.132676 C309.09861,206.951252 309.441465,205.75221 309.282856,204.623643 C308.630591,204.075947 308.155561,204.334518 307.635471,204.727295 Z M249.787279,202.179926 C251.423848,202.908969 253.106479,203.05611 254.491314,204.268088 C254.507936,204.841181 254.53337,205.476972 254.595051,205.915859 C254.100395,206.944426 253.160148,207.076569 252.174842,207.342918 C250.796815,207.089031 249.876194,206.451178 248.857644,205.571341 C248.795963,205.132454 248.608915,204.711186 248.493362,204.343807 C248.746098,203.413175 249.168258,202.778416 249.787279,202.179926 Z" id="Combined-Shape" fill="url(#linearGradient-1)"></path><path d="M241,378 C345.381818,378 430,293.381818 430,189 C430,84.6181823 345.381818,0 241,0 C136.618182,0 52,84.6181823 52,189 C52,293.381818 136.618182,378 241,378 Z" id="Oval-Copy-5" stroke="#1C1F2C" stroke-dasharray="1,5" fill-rule="nonzero"></path><path d="M209.9,111.315289 L209.9,74.3552893 L202.82,74.3552893 L202.82,68.5952893 L223.1,68.5952893 L223.1,74.3552893 L216.02,74.3552893 L216.02,111.315289 L209.9,111.315289 Z M239.42,98.4152893 L227.3,98.4152893 L227.3,102.555289 C227.3,103.515294 227.569997,104.255287 228.11,104.775289 C228.650003,105.295292 229.379995,105.555289 230.3,105.555289 C231.460006,105.555289 232.229998,105.215293 232.61,104.535289 C232.990002,103.855286 233.22,103.175293 233.3,102.495289 L239.42,102.495289 C239.42,105.175303 238.600008,107.335281 236.96,108.975289 C236.159996,109.815293 235.200006,110.475287 234.08,110.955289 C232.959994,111.435292 231.700007,111.675289 230.3,111.675289 C228.37999,111.675289 226.750007,111.275293 225.41,110.475289 C224.069993,109.675285 223.040004,108.615296 222.32,107.295289 C221.879998,106.495285 221.580001,105.575294 221.42,104.535289 C221.259999,103.495284 221.18,102.355295 221.18,101.115289 L221.18,91.0952893 C221.18,89.8552831 221.259999,88.7152945 221.42,87.6752893 C221.580001,86.6352841 221.879998,85.7152933 222.32,84.9152893 C223.040004,83.5952827 224.069993,82.5352893 225.41,81.7352893 C226.750007,80.9352853 228.37999,80.5352893 230.3,80.5352893 C231.700007,80.5352893 232.969994,80.7752869 234.11,81.2552893 C235.250006,81.7352917 236.219996,82.3952851 237.02,83.2352893 C238.620008,85.0352893 239.42,87.2952757 239.42,90.0152893 L239.42,98.4152893 Z M227.3,93.6152893 L233.3,93.6152893 L233.3,90.1352893 C233.3,88.9752835 233.030003,88.1052922 232.49,87.5252893 C231.949997,86.9452864 231.220005,86.6552893 230.3,86.6552893 C229.379995,86.6552893 228.650003,86.9452864 228.11,87.5252893 C227.569997,88.1052922 227.3,88.9752835 227.3,90.1352893 L227.3,93.6152893 Z M250.4,102.555289 C250.4,103.515294 250.669997,104.255287 251.21,104.775289 C251.750003,105.295292 252.479995,105.555289 253.4,105.555289 C254.560006,105.555289 255.329998,105.215293 255.71,104.535289 C256.090002,103.855286 256.32,103.175293 256.4,102.495289 L262.52,102.495289 C262.52,105.175303 261.700008,107.335281 260.06,108.975289 C259.259996,109.815293 258.300006,110.475287 257.18,110.955289 C256.059994,111.435292 254.800007,111.675289 253.4,111.675289 C251.47999,111.675289 249.850007,111.275293 248.51,110.475289 C247.169993,109.675285 246.140004,108.615296 245.42,107.295289 C244.979998,106.495285 244.680001,105.575294 244.52,104.535289 C244.359999,103.495284 244.28,102.355295 244.28,101.115289 L244.28,91.0952893 C244.28,89.8552831 244.359999,88.7152945 244.52,87.6752893 C244.680001,86.6352841 244.979998,85.7152933 245.42,84.9152893 C246.140004,83.5952827 247.169993,82.5352893 248.51,81.7352893 C249.850007,80.9352853 251.47999,80.5352893 253.4,80.5352893 C254.800007,80.5352893 256.069994,80.7752869 257.21,81.2552893 C258.350006,81.7352917 259.319996,82.3952851 260.12,83.2352893 C261.720008,85.0352893 262.52,87.3752749 262.52,90.2552893 L256.4,90.2552893 C256.4,89.0152831 256.130003,88.1052922 255.59,87.5252893 C255.049997,86.9452864 254.320005,86.6552893 253.4,86.6552893 C252.479995,86.6552893 251.750003,86.9452864 251.21,87.5252893 C250.669997,88.1052922 250.4,88.9752835 250.4,90.1352893 L250.4,102.555289 Z M265.4,111.315289 L265.4,68.5952893 L271.52,68.5952893 L271.52,83.8352893 L271.64,83.8352893 C272.280003,82.8752845 273.049996,82.0852924 273.95,81.4652893 C274.850005,80.8452862 275.999993,80.5352893 277.4,80.5352893 C278.160004,80.5352893 278.919996,80.665288 279.68,80.9252893 C280.440004,81.1852906 281.119997,81.6152863 281.72,82.2152893 C282.320003,82.8152923 282.799998,83.5852846 283.16,84.5252893 C283.520002,85.465294 283.7,86.6152825 283.7,87.9752893 L283.7,111.315289 L277.58,111.315289 L277.58,90.2552893 C277.58,89.1352837 277.320003,88.2552925 276.8,87.6152893 C276.279997,86.9752861 275.540005,86.6552893 274.58,86.6552893 C273.419994,86.6552893 272.620002,87.0152857 272.18,87.7352893 C271.739998,88.4552929 271.52,89.4952825 271.52,90.8552893 L271.52,111.315289 L265.4,111.315289 Z" id="Tech" fill="#1C1F2C" transform="translate(243.260000, 90.135289) rotate(-360.000000) translate(-243.260000, -90.135289) "></path><path d="M251.476,124.576 C253.654678,125.336004 254.845332,127.007987 255.048,129.592 C255.200001,131.314675 254.870671,133.417321 254.06,135.9 C253.40133,137.825343 252.565338,139.750657 251.552,141.676 C250.538662,143.601343 249.652004,145.045329 248.892,146.008 C248.030662,147.072005 247.27067,147.806665 246.612,148.212 C246.307998,148.414668 245.649338,148.718665 244.636,149.124 C244.546866,150.772987 244.477333,152.500355 244.427401,154.306143 C244.521719,154.394774 244.606825,154.49202 244.683538,154.599185 L245.244,153.684 C246.662674,151.403989 248.106659,149.681339 249.576,148.516 C251.653344,146.793325 253.67999,146.185331 255.656,146.692 C257.784011,147.198669 259.050665,149.09865 259.456,152.392 C259.608001,153.608006 259.633334,156.166647 259.532,160.068 C259.481333,163.260016 259.607998,165.51466 259.912,166.832 C260.216002,168.098673 260.69733,168.757333 261.356,168.808 C263.028008,169.010668 264.725325,167.668014 266.448,164.78 C267.10667,163.665328 267.866662,161.993344 268.728,159.764 C268.981335,159.054663 269.335998,157.914675 269.792,156.344 C270.298669,154.722659 270.703998,153.481338 271.008,152.62 C271.053618,152.494549 271.106938,152.377442 271.167958,152.268678 C271.571216,149.845399 271.796535,148.468252 271.844,148.136 C271.945334,147.527997 272.211331,147.059335 272.642,146.73 C273.072669,146.400665 273.57933,146.274 274.162,146.35 C274.74467,146.426 275.200665,146.679331 275.53,147.11 C275.859335,147.540669 275.998667,148.034664 275.948,148.592 C275.897333,148.997335 275.644002,150.567986 275.188,153.304 C274.731998,155.837346 274.402668,158.066657 274.2,159.992 C273.895998,162.525346 273.769333,164.526659 273.82,165.996 C273.921334,167.617341 274.123998,168.605332 274.428,168.96 C274.732002,169.314668 274.985332,169.517333 275.188,169.568 C275.340001,169.568 275.567998,169.466668 275.872,169.264 C276.834671,168.554663 277.923994,167.034678 279.14,164.704 C279.481626,164.035601 279.851554,163.238753 280.249784,162.313454 C280.404794,161.160901 280.66829,159.956734 281.04,158.7 C282.053338,155.355983 283.598656,152.392013 285.676,149.808 C288.006678,146.919986 290.48932,145.248002 293.124,144.792 C293.884004,144.690666 294.517331,144.943997 295.024,145.552 L295.784,145.856 C297.152007,146.362669 298.291995,147.426659 299.204,149.048 C300.774675,151.784014 301.458668,155.279979 301.256,159.536 C301.103999,163.48802 300.192008,166.806653 298.52,169.492 C299.280004,169.897335 300.039996,170.125333 300.8,170.176 C302.624009,170.277334 304.245326,169.061346 305.664,166.528 C306.018668,165.919997 306.335332,165.312003 306.614,164.704 C306.892668,164.095997 307.107999,163.589335 307.26,163.184 L307.2772,163.134499 L307.422688,162.116432 C307.960231,158.198467 308.361999,154.222354 308.628,150.188 C308.678667,149.630664 308.919331,149.162002 309.35,148.782 C309.780669,148.401998 310.274664,148.237333 310.832,148.288 C311.389336,148.338667 311.857998,148.579331 312.238,149.01 C312.618002,149.440669 312.782667,149.934664 312.732,150.492 C312.681333,151.049336 312.656,151.581331 312.656,152.088 C313.922673,150.061323 315.113328,148.566671 316.228,147.604 C318.406678,145.729324 320.382658,145.45066 322.156,146.768 C323.068005,147.42667 323.701332,148.465326 324.056,149.884 C324.309335,150.846671 324.461333,152.062659 324.512,153.532 C324.512,154.444005 324.474,155.938656 324.398,158.016 C324.322,160.093344 324.284,161.334665 324.284,161.74 C324.233333,164.830682 324.461331,167.03466 324.968,168.352 C325.170668,168.960003 325.436665,169.377999 325.766,169.606 C326.095335,169.834001 326.58933,169.922667 327.248,169.872 C328.261338,169.770666 329.021331,169.517335 329.528,169.112 C329.882668,168.757332 330.465329,167.946673 331.276,166.68 C332.390672,164.957325 333.454662,162.829346 334.468,160.296 L334.924,159.004 L334.924,158.852 L335,158.244 C335.050667,158.193333 335.088667,158.13 335.114,158.054 C335.139333,157.978 335.152,157.914667 335.152,157.864 L335.456,157.332 L336.976,153.684 C337.229335,153.177331 337.609331,152.822668 338.116,152.62 C338.622669,152.417332 339.141997,152.429999 339.674,152.658 C340.206003,152.886001 340.573332,153.253331 340.776,153.76 C340.978668,154.266669 340.978668,154.798664 340.776,155.356 L339.864,157.408 L339.864,157.56 C339.762666,157.914668 339.230671,159.333321 338.268,161.816 C337.153328,164.602681 335.988006,166.98399 334.772,168.96 C333.758662,170.530675 332.897337,171.619997 332.188,172.228 C331.022661,173.190671 329.477343,173.773332 327.552,173.976 C325.930659,174.128001 324.537339,173.798671 323.372,172.988 C322.358662,172.278663 321.598669,171.214674 321.092,169.796 C320.43333,168.022658 320.129333,165.312018 320.18,161.664 C320.230667,161.207998 320.281333,159.99201 320.332,158.016 C320.382667,156.03999 320.408,154.570671 320.408,153.608 C320.357333,152.442661 320.256001,151.556003 320.104,150.948 C320.002666,150.542665 319.901334,150.264001 319.8,150.112 C319.597332,150.213334 319.318668,150.415998 318.964,150.72 C318.001329,151.480004 316.937339,152.822657 315.772,154.748 C314.809329,156.369341 313.897338,158.041325 313.036,159.764 C312.511139,160.912134 312.113712,161.826637 311.843715,162.507517 L311.7672,162.701499 L311.766539,162.704773 L311.782,162.652 C311.60411,163.284496 311.433934,163.824458 311.271466,164.271896 C311.251698,164.358371 311.231849,164.452756 311.212,164.552 C310.857332,166.680011 310.477335,168.757323 310.072,170.784 C310.072,170.986668 310.046667,171.138666 309.996,171.24 C309.996,171.442668 309.945334,171.645332 309.844,171.848 C309.742666,172.000001 309.616001,172.151999 309.464,172.304 C308.754663,173.013337 307.969338,173.165335 307.108,172.76 C306.812405,172.625639 306.573821,172.441397 306.392246,172.207272 C304.692421,173.682138 302.75184,174.373422 300.572,174.28 C298.950659,174.178666 297.329341,173.621338 295.708,172.608 C293.275988,174.482676 290.41335,175.065337 287.12,174.356 C284.169316,173.791899 282.129134,172.205856 280.999412,169.597832 C280.091887,170.909963 279.193308,171.888018 278.304,172.532 C277.138661,173.393338 275.973339,173.748001 274.808,173.596 C273.541327,173.494666 272.401338,172.861339 271.388,171.696 C270.547284,170.72254 270.015716,169.208103 269.793284,167.152654 L269.944,166.908 C267.30932,171.265355 264.294684,173.266668 260.9,172.912 C258.315987,172.607998 256.669337,170.885349 255.96,167.744 C255.554665,166.071992 255.377333,163.488017 255.428,159.992 C255.529334,156.343982 255.504001,153.962672 255.352,152.848 C255.149332,151.327992 254.896002,150.593333 254.592,150.644 C253.983997,150.491999 253.173338,150.821329 252.16,151.632 C251.045328,152.544005 249.880006,153.962657 248.664,155.888 C247.599995,157.560008 246.662671,159.307991 245.852,161.132 C245.041329,162.956009 244.509335,164.349329 244.256,165.312 L244.256,171.696 C244.256,172.253336 244.053335,172.734665 243.648,173.14 C243.242665,173.545335 242.761336,173.748 242.204,173.748 C241.443996,173.748 240.861335,173.41867 240.456,172.76 C240.101332,172.354665 239.924,171.873336 239.924,171.316 C239.974667,169.33999 240,168.200002 240,167.896 L240.003731,167.809875 C239.951616,167.891067 239.899705,167.970442 239.848,168.048 C236.453316,173.064025 232.400024,174.812008 227.688,173.292 L226.396,172.912 L224.648,172.304 C223.786662,172.96267 222.824005,173.443998 221.76,173.748 C219.378655,174.40667 216.845347,174.128006 214.16,172.912 C212.839547,172.334302 211.713272,171.629653 210.781167,170.798047 C210.401224,171.25043 210.006864,171.65126 209.6,172 C207.62399,173.722675 205.445345,174.25467 203.064,173.596 C200.530654,172.886663 198.782671,171.189347 197.82,168.504 C197.667999,168.149332 197.541334,167.744002 197.44,167.288 C197.034665,167.997337 196.604002,168.630664 196.148,169.188 C194.577325,171.316011 192.930675,172.633331 191.208,173.14 C188.826655,173.849337 186.673343,173.064011 184.748,170.784 C183.329326,169.111992 182.695999,166.553351 182.848,163.108 C183.000001,160.169319 183.683994,157.180015 184.9,154.14 C186.21734,150.84665 187.86399,148.414675 189.84,146.844 C192.525347,144.817323 195.311986,144.589325 198.2,146.16 C199.821341,147.122671 200.859998,148.110662 201.316,149.124 C201.468001,149.580002 201.594666,150.13733 201.696,150.796 L201.696,151.024 C201.746667,151.024 201.797333,151.049333 201.848,151.1 C202.253335,151.505335 202.481333,152.011997 202.532,152.62 C202.582667,153.076002 202.506668,153.607997 202.304,154.216 C202.304,154.317334 202.177335,154.621331 201.924,155.128 L201.848,155.508 C201.543998,157.129341 201.392,157.965333 201.392,158.016 C201.290666,158.877338 201.214667,159.738662 201.164,160.6 C201.062666,161.562671 201.012,162.119999 201.012,162.272 C201.012,164.298677 201.214665,165.919994 201.62,167.136 C202.177336,168.504007 203.013328,169.339998 204.128,169.644 C205.141338,169.897335 206.078662,169.644004 206.94,168.884 C207.38927,168.484649 207.838537,167.943905 208.287803,167.261763 C208.087438,166.618229 208.018587,165.90501 208.08,165.122 C208.181334,163.829994 208.789328,162.753338 209.904,161.892 C210.253093,161.620483 210.615381,161.400107 210.990866,161.230871 C211.233837,160.497805 211.479362,159.704474 211.728,158.852 C212.330588,156.94909 212.764429,155.592126 213.029527,154.781096 C213.043968,154.513982 213.117346,154.249307 213.248,153.988 C213.298667,153.886666 213.855995,152.569346 214.92,150.036 L215.984,147.604 C216.136001,147.198665 216.262666,146.894668 216.364,146.692 C216.465334,146.590666 216.541333,146.489334 216.592,146.388 C216.642667,146.286666 216.693333,146.210667 216.744,146.16 C216.896001,145.906665 217.098665,145.704001 217.352,145.552 C218.466672,144.842663 219.631994,144.943995 220.848,145.856 C221.456003,146.312002 222.08933,147.021329 222.748,147.984 C223.761338,149.554675 224.774662,151.682653 225.788,154.368 C226.801338,156.901346 227.535998,159.307989 227.992,161.588 C228.600003,164.324014 228.650669,166.299994 228.144,167.516 C227.941332,168.022669 227.738668,168.503998 227.536,168.96 L228.904,169.34 C231.690681,170.252005 234.198656,169.036017 236.428,165.692 C237.520549,164.095198 238.787334,161.400638 240.228384,157.608259 C240.404751,149.060164 240.88593,141.976399 241.672,136.356 C242.077335,133.569319 242.761329,131.112011 243.724,128.984 C244.484004,127.362659 245.509994,126.045338 246.802,125.032 C248.094006,124.018662 249.651991,123.866663 251.476,124.576 Z M187.712,122.296 C188.218669,122.549335 188.560666,122.941997 188.738,123.474 C188.915334,124.006003 188.877335,124.525331 188.624,125.032 C188.370665,125.538669 187.965336,125.893332 187.408,126.096 L185.812,126.628 C185.102663,126.881335 184.494669,127.083999 183.988,127.236 C183.481331,127.388001 182.86067,127.552666 182.126,127.73 C181.39133,127.907334 180.720003,128.046666 180.112,128.148 C179.250662,128.249334 178.338671,128.3 177.376,128.3 C175.501324,133.012024 174.285336,137.495979 173.728,141.752 C173.525332,143.06934 173.348001,145.197319 173.196,148.136 C173.094666,149.757341 172.993334,151.074662 172.892,152.088 C173.246668,152.240001 173.575998,152.366666 173.88,152.468 C174.944005,152.873335 175.830663,153.000001 176.54,152.848 C177.401338,152.695999 178.211996,152.138671 178.972,151.176 C179.326668,150.719998 179.782664,150.466667 180.34,150.416 C180.897336,150.365333 181.403998,150.517332 181.86,150.872 C182.316002,151.226668 182.569333,151.682664 182.62,152.24 C182.670667,152.797336 182.518668,153.303998 182.164,153.76 C180.795993,155.482675 179.200009,156.521332 177.376,156.876 C175.906659,157.180002 174.285342,157.00267 172.512,156.344 L172.284,156.268 C171.371995,160.87869 169.446681,164.653319 166.508,167.592 C165.038659,169.061341 163.189344,170.289995 160.96,171.278 C158.730656,172.266005 156.501344,172.861332 154.272,173.064 C151.687987,173.216001 149.332011,172.798005 147.204,171.81 C145.075989,170.821995 143.505338,169.137345 142.492,166.756 C142.289332,166.198664 142.289332,165.654003 142.492,165.122 C142.694668,164.589997 143.061997,164.222668 143.594,164.02 C144.126003,163.817332 144.657997,163.817332 145.19,164.02 C145.722003,164.222668 146.089332,164.577331 146.292,165.084 C147.508006,167.972014 150.041314,169.264002 153.892,168.96 C155.716009,168.807999 157.514658,168.339337 159.288,167.554 C161.061342,166.768663 162.505328,165.818672 163.62,164.704 C166.153346,162.119987 167.774663,158.674688 168.484,154.368 L168.332,154.292 C166.659992,153.329329 165.49467,152.721335 164.836,152.468 C162.657322,151.505329 159.870684,151.606661 156.476,152.772 C155.918664,152.924001 155.386669,152.873335 154.88,152.62 C154.373331,152.366665 154.031334,151.974003 153.854,151.442 C153.676666,150.909997 153.714665,150.390669 153.968,149.884 C154.221335,149.377331 154.601331,149.022668 155.108,148.82 C159.516022,147.401326 163.315984,147.35066 166.508,148.668 C167.16667,148.972002 167.977329,149.377331 168.94,149.884 C168.990667,149.478665 169.041333,148.820005 169.092,147.908 C169.294668,144.665317 169.471999,142.410673 169.624,141.144 C170.181336,137.039979 171.295992,132.733356 172.968,128.224 C172.207996,128.224 171.296005,128.173334 170.232,128.072 C164.861306,127.717332 161.416008,127.54 159.896,127.54 C156.197315,127.489333 153.056013,127.894662 150.472,128.756 C147.887987,129.617338 145.785341,131.162656 144.164,133.392 C143.809332,133.848002 143.353336,134.114 142.796,134.19 C142.238664,134.266 141.732002,134.139335 141.276,133.81 C140.819998,133.480665 140.554,133.037336 140.478,132.48 C140.402,131.922664 140.515998,131.416002 140.82,130.96 C142.948011,128.071986 145.633317,126.083339 148.876,124.994 C152.118683,123.904661 155.817313,123.385333 159.972,123.436 C161.542675,123.436 165.03864,123.613332 170.46,123.968 C172.790678,124.120001 174.513328,124.196 175.628,124.196 L176.388,124.196 C177.604006,124.196 178.693329,124.145334 179.656,124.044 C180.162669,123.993333 180.694664,123.892001 181.252,123.74 L182.772,123.36 C183.177335,123.207999 183.734663,123.005335 184.444,122.752 L186.192,122.144 C186.698669,121.991999 187.205331,122.042665 187.712,122.296 Z M286.892,155.28 C286.081329,156.800008 285.448002,158.345325 284.992,159.916 C284.130662,162.753348 283.953331,165.15999 284.46,167.136 C284.966669,168.909342 286.106658,169.998665 287.88,170.404 C289.653342,170.758668 291.19866,170.556004 292.516,169.796 L292.516,169.796 L292.212,169.492 L291.869417,169.085049 C290.405895,167.298915 289.215433,165.217917 288.298,162.842 C287.309995,160.283321 286.841333,157.762679 286.892,155.28 Z M213.552,165.008 C213.095998,164.855999 212.741335,164.881332 212.488,165.084 C212.133332,165.388002 212.107998,165.818664 212.412,166.376 C213.07067,167.541339 214.210659,168.478663 215.832,169.188 C217.301341,169.84667 218.69466,170.074668 220.012,169.872 L220.012,169.872 L218.644,168.656 L218.343799,168.359599 C217.454597,167.493196 216.668003,166.832002 215.984,166.376 C215.021329,165.615996 214.21067,165.160001 213.552,165.008 Z M196.224,149.808 C194.90666,149.047996 193.614673,149.149329 192.348,150.112 C190.929326,151.226672 189.713338,153.075987 188.7,155.66 C187.635995,158.193346 187.053334,160.751987 186.952,163.336 C186.850666,165.717345 187.179996,167.338662 187.94,168.2 C188.700004,169.061338 189.40933,169.390668 190.068,169.188 C190.878671,168.934665 191.815995,168.098674 192.88,166.68 C193.842671,165.413327 194.729329,163.893342 195.54,162.12 C196.350671,160.397325 196.907998,159.004005 197.212,157.94 C197.262667,157.737332 197.313333,157.560001 197.364,157.408 L197.364,157.408 L197.364,156.876 L197.4096,156.488399 C197.5464,155.348395 197.683199,154.413604 197.82,153.684 C197.82,153.531999 197.845333,153.405334 197.896,153.304 C197.896,153.253333 197.870667,153.228 197.82,153.228 C197.769333,152.873332 197.693334,152.240005 197.592,151.328 C197.541333,150.973332 197.490667,150.745334 197.44,150.644 C197.490667,150.542666 197.085338,150.264002 196.224,149.808 Z M219.328,150.264 L218.72,151.632 C217.899644,153.571024 217.353725,154.837677 217.082236,155.431977 C216.940471,155.92262 216.473072,157.468485 215.68,160.068 C215.556048,160.481173 215.432097,160.883563 215.308145,161.275171 C216.287282,161.628846 217.348487,162.215205 218.492,163.032 C219.302671,163.69067 220.290661,164.551995 221.456,165.616 C222.469338,166.578671 223.039333,167.110666 223.166,167.212 C223.292667,167.313334 223.431999,167.414666 223.584,167.516 C223.888002,167.059998 224.141332,166.553336 224.344,165.996 C224.496001,165.539998 224.369335,164.349343 223.964,162.424 C223.558665,160.397323 222.900005,158.193345 221.988,155.812 C221.075995,153.379988 220.189338,151.530673 219.328,150.264 Z M294.264,149.656 C293.858665,149.453332 293.352003,149.529332 292.744,149.884 C292.693333,149.884 292.642667,149.934666 292.592,150.036 C292.439999,150.340002 292.262668,150.719998 292.06,151.176 C290.945328,153.405344 290.729997,155.989319 291.414,158.928 C292.098003,161.866681 293.402657,164.475989 295.328,166.756 C296.442672,164.77999 297.050666,162.297348 297.152,159.308 C297.304001,155.811983 296.797339,153.07601 295.632,151.1 C295.226665,150.289329 294.770669,149.808001 294.264,149.656 Z M249.272,128.376 C248.511996,128.122665 247.777337,128.806659 247.068,130.428 C246.358663,131.998675 245.877335,133.822656 245.624,135.9 C245.319998,137.926677 245.092001,140.079989 244.94,142.36 C245.092001,142.207999 245.294665,141.929335 245.548,141.524 C246.054669,140.86533 246.687996,139.801341 247.448,138.332 C248.208004,136.862659 248.815998,135.368008 249.272,133.848 C249.829336,132.125325 250.057334,130.757338 249.956,129.744 C249.905333,128.983996 249.677335,128.528001 249.272,128.376 Z M274.96,135.292 C275.517336,135.292 275.998665,135.494665 276.404,135.9 C276.809335,136.305335 277.012,136.786664 277.012,137.344 C277.012,137.901336 276.809335,138.382665 276.404,138.788 C275.998665,139.193335 275.517336,139.396 274.96,139.396 C274.402664,139.396 273.921335,139.193335 273.516,138.788 C273.110665,138.382665 272.908,137.901336 272.908,137.344 C272.908,136.786664 273.110665,136.305335 273.516,135.9 C273.921335,135.494665 274.402664,135.292 274.96,135.292 Z" id="Fashion" fill="#1C1F2C" transform="translate(240.691600, 148.353290) rotate(-360.000000) translate(-240.691600, -148.353290) "></path><path d="M113.330914,172.969173 C81.1215479,131.494247 54.7882146,106.82758 34.3309143,98.9691734" id="Path-34" fill="#FA4581" fill-rule="nonzero" transform="translate(73.830914, 135.969173) rotate(-25.000000) translate(-73.830914, -135.969173) "></path><path d="M375.66477,196.467757 C427.352764,187.276278 463.435855,186.620029 483.914043,194.49901 L375.66477,196.467757 Z" id="Path-34-Copy" fill="#FA4581" fill-rule="nonzero" transform="translate(429.789407, 192.755938) rotate(-6.000000) translate(-429.789407, -192.755938) "></path><path d="M107,202.477653 C61.4867076,197.113936 25.8200409,197.954718 0,205" id="Path-35" fill="#FF9B36" fill-rule="nonzero"></path><path d="M288,312 C292,350.873563 292,382.54023 288,407" id="Path-36" fill="#FC6C5F" fill-rule="nonzero"></path><path d="M151,294 C131.028986,355.915308 122.563012,403.915308 125.602079,438" id="Path-37" fill="#F93C88" fill-rule="nonzero" transform="translate(138.000000, 366.000000) rotate(15.000000) translate(-138.000000, -366.000000) "></path><path d="M350.450017,308.686986 C385.0845,330.061986 412.0845,357.061986 431.450017,389.686986" id="Path-38" fill="#FF9C34" fill-rule="nonzero" transform="translate(390.950017, 349.186986) rotate(14.000000) translate(-390.950017, -349.186986) "></path><path d="M321.227201,124.003489 C327.322439,97.0337509 337.989105,75.7004176 353.227201,60.0034889" id="Path-39" fill="#FA4085" fill-rule="nonzero" transform="translate(337.227201, 92.003489) rotate(17.000000) translate(-337.227201, -92.003489) "></path><path d="M130.664429,101.620066 C136.759667,74.6503277 147.426333,53.3169943 162.664429,37.6200657" id="Path-39-Copy" fill="#FA4085" fill-rule="nonzero" transform="translate(146.664429, 69.620066) scale(-1, 1) rotate(19.000000) translate(-146.664429, -69.620066) "></path><path d="M360.489004,169.172913 C384.364973,140.049867 412.364973,120.049867 444.489004,109.172913" id="Path-40" fill="#FB5C6D" fill-rule="nonzero" transform="translate(402.489004, 139.172913) rotate(3.000000) translate(-402.489004, -139.172913) "></path><path d="M95.6406032,269 L46,322.218494 C54.3614097,305.844235 70.9082775,288.104737 95.6406032,269 Z" id="Path-41" fill="#FD7E4F" fill-rule="nonzero"></path></g></g></g></svg> 